<svg width="300" height="225,98" viewBox="0 0 596 448.5" fill="none" xmlns="http://www.w3.org/2000/svg">
  <path d="M94.27 6.14a13.7 13.7 0 0 1 13.6 0l85.41 48.81a13.7 13.7 0 0 1 6.91 11.9v97.35a13.7 13.7 0 0 1-6.91 11.9l-85.41 48.81a13.7 13.7 0 0 1-13.6 0l-85.41-48.8a13.7 13.7 0 0 1-6.9-11.9V66.86a13.7 13.7 0 0 1 6.91-11.9z" stroke="#d9d9d92d" stroke-width="3.916"/>
  <path d="M292.44 6.14a13.7 13.7 0 0 1 13.6 0l85.41 48.81a13.7 13.7 0 0 1 6.91 11.9v97.35a13.7 13.7 0 0 1-6.91 11.9l-85.41 48.81a13.7 13.7 0 0 1-13.6 0l-85.41-48.81a13.7 13.7 0 0 1-6.91-11.9V66.86a13.7 13.7 0 0 1 6.91-11.9z" stroke="#d9d9d92d" stroke-width="3.916"/>
  <path d="M490.62 6.14a13.7 13.7 0 0 1 13.6 0l85.41 48.81a13.7 13.7 0 0 1 6.91 11.9v97.35a13.7 13.7 0 0 1-6.91 11.9l-85.41 48.81a13.7 13.7 0 0 1-13.6 0l-85.41-48.81a13.7 13.7 0 0 1-6.91-11.9V66.86a13.7 13.7 0 0 1 6.91-11.9z" stroke="#d9d9d92d" stroke-width="3.916"/>
  <path d="M490.62 229.38a13.7 13.7 0 0 1 13.6 0l85.41 48.81a13.7 13.7 0 0 1 6.91 11.9v97.36a13.7 13.7 0 0 1-6.91 11.9l-85.41 48.81a13.7 13.7 0 0 1-13.6 0l-85.41-48.81a13.7 13.7 0 0 1-6.91-11.9v-97.36a13.7 13.7 0 0 1 6.91-11.9z" stroke="#d9d9d92d" stroke-width="3.916"/>
  <path d="M292.44 229.38a13.7 13.7 0 0 1 13.6 0l85.41 48.81a13.7 13.7 0 0 1 6.91 11.9v97.36a13.7 13.7 0 0 1-6.91 11.9l-85.41 48.81a13.7 13.7 0 0 1-13.6 0l-85.41-48.81a13.7 13.7 0 0 1-6.91-11.9v-97.36a13.7 13.7 0 0 1 6.91-11.9z" stroke="#d9d9d92d" stroke-width="3.916"/>
  <path d="M94.27 229.38a13.7 13.7 0 0 1 13.6 0l85.41 48.81a13.7 13.7 0 0 1 6.91 11.9v97.36a13.7 13.7 0 0 1-6.91 11.9l-85.41 48.81a13.7 13.7 0 0 1-13.6 0L8.86 399.35a13.7 13.7 0 0 1-6.9-11.9v-97.36a13.7 13.7 0 0 1 6.91-11.9z" stroke="#d9d9d92d" stroke-width="3.916"/>
  <path d="m188.9 227.84-7.29 7.25 7.29 7.25-4.26 4.31-11.6-11.55 11.6-11.5zm34.46 6.8-11.6 11.51-4.26-4.26 7.25-7.25-7.25-7.29 4.26-4.26zm164.49-6.8-7.29 7.25 7.29 7.25-4.26 4.31-11.6-11.55 11.6-11.5zm34.46 6.8-11.59 11.51-4.26-4.26 7.25-7.25-7.25-7.29 4.26-4.26zm165.27-6.8-7.29 7.25 7.29 7.25-4.26 4.31-11.6-11.55 11.6-11.5zm-563.19 6.8-11.58 11.51-4.26-4.26 7.25-7.25-7.25-7.29 4.26-4.26z" fill="#d9d9d92d"/>
</svg>
